<svg xmlns="http://www.w3.org/2000/svg" aria-hidden="true" focusable="false"><defs/><symbol id="check" viewBox="0 0 24 24" fill="none" stroke="currentColor" stroke-width="var(--icon-stroke-width, 2)" stroke-linecap="round" stroke-linejoin="round">
  <path d="M20 6 9 17l-5-5"/>
</symbol><symbol id="download" viewBox="0 0 24 24" fill="none" stroke="currentColor" stroke-width="var(--icon-stroke-width, 2)" stroke-linecap="round" stroke-linejoin="round">
  <path d="M12 15V3"/>
  <path d="M21 15v4a2 2 0 0 1-2 2H5a2 2 0 0 1-2-2v-4"/>
  <path d="m7 10 5 5 5-5"/>
</symbol><symbol id="external-link" viewBox="0 0 24 24" fill="none" stroke="currentColor" stroke-width="var(--icon-stroke-width, 2)" stroke-linecap="round" stroke-linejoin="round">
  <path d="M15 3h6v6"/>
  <path d="M10 14 21 3"/>
  <path d="M18 13v6a2 2 0 0 1-2 2H5a2 2 0 0 1-2-2V8a2 2 0 0 1 2-2h6"/>
</symbol><symbol id="mail" viewBox="0 0 24 24" fill="none" stroke="currentColor" stroke-width="var(--icon-stroke-width, 2)" stroke-linecap="round" stroke-linejoin="round">
  <path d="m22 7-8.991 5.727a2 2 0 0 1-2.009 0L2 7"/>
  <rect x="2" y="4" width="20" height="16" rx="2"/>
</symbol><symbol id="map-pin-house" viewBox="0 0 24 24" fill="none" stroke="currentColor" stroke-width="var(--icon-stroke-width, 2)" stroke-linecap="round" stroke-linejoin="round">
  <path d="M15 22a1 1 0 0 1-1-1v-4a1 1 0 0 1 .445-.832l3-2a1 1 0 0 1 1.11 0l3 2A1 1 0 0 1 22 17v4a1 1 0 0 1-1 1z"/>
  <path d="M18 10a8 8 0 0 0-16 0c0 4.993 5.539 10.193 7.399 11.799a1 1 0 0 0 .601.2"/>
  <path d="M18 22v-3"/>
  <circle cx="10" cy="10" r="3"/>
</symbol><symbol id="menu" viewBox="0 0 24 24" fill="none" stroke="currentColor" stroke-width="var(--icon-stroke-width, 2)" stroke-linecap="round" stroke-linejoin="round">
  <path d="M4 5h16"/>
  <path d="M4 12h16"/>
  <path d="M4 19h16"/>
</symbol><symbol id="moon" viewBox="0 0 24 24" fill="none" stroke="currentColor" stroke-width="var(--icon-stroke-width, 2)" stroke-linecap="round" stroke-linejoin="round">
  <path d="M20.985 12.486a9 9 0 1 1-9.473-9.472c.405-.022.617.46.402.803a6 6 0 0 0 8.268 8.268c.344-.215.825-.004.803.401"/>
</symbol><symbol id="sun" viewBox="0 0 24 24" fill="none" stroke="currentColor" stroke-width="var(--icon-stroke-width, 2)" stroke-linecap="round" stroke-linejoin="round">
  <circle cx="12" cy="12" r="4"/>
  <path d="M12 2v2"/>
  <path d="M12 20v2"/>
  <path d="m4.93 4.93 1.41 1.41"/>
  <path d="m17.66 17.66 1.41 1.41"/>
  <path d="M2 12h2"/>
  <path d="M20 12h2"/>
  <path d="m6.34 17.66-1.41 1.41"/>
  <path d="m19.07 4.93-1.41 1.41"/>
</symbol><symbol id="x" viewBox="0 0 24 24" fill="none" stroke="currentColor" stroke-width="var(--icon-stroke-width, 2)" stroke-linecap="round" stroke-linejoin="round">
  <path d="M18 6 6 18"/>
  <path d="m6 6 12 12"/>
</symbol></svg>